# xmcd
#
# Track frame offsets:
#	150
#	19225
#	32187
#	47157
#	64289
#	82601
#	103854
#	121412
#	137627
#	154770
#	178118
#	211833
#
# Disc length: 3358 seconds
#
# Revision: 0
# Processed by: cddbd v1.5.2PL0 Copyright (c) Steve Scherf et al.
# Submitted via: EasyCDDAExtractor 15.0.0.1
#
DISCID=a10d1c0c
DTITLE=Bjørn-Peder - Blå Sjel
DYEAR=2010
DGENRE=Country
TTITLE0=Blå Sjel
TTITLE1=Starte Band
TTITLE2=Pappaperm
TTITLE3=Vise te trøst for oss aille (duett med Sibeth Hoff)
TTITLE4=Hatten
TTITLE5=Så Me Tebake
TTITLE6=Sanders Vise
TTITLE7=Ole Harry
TTITLE8=Jimis Blues
TTITLE9=Aargangsvin
TTITLE10=Løftet
TTITLE11=Bonusvideo
EXTD=
EXTT0=
EXTT1=
EXTT2=
EXTT3=
EXTT4=
EXTT5=
EXTT6=
EXTT7=
EXTT8=
EXTT9=
EXTT10=
EXTT11=
PLAYORDER=
